<svg width="275" height="229" viewBox="0 0 275 229" fill="none" xmlns="http://www.w3.org/2000/svg">
<g clip-path="url(#clip0_551_2179)">
<rect width="15.1324" height="15.1324" rx="7.56618" fill="#272A28"/>
<rect x="25.2206" width="15.1324" height="15.1324" rx="7.56618" fill="#272A28"/>
<rect x="50.4412" width="15.1324" height="15.1324" rx="7.56618" fill="#272A28"/>
<rect x="75.6619" width="15.1324" height="15.1324" rx="7.56618" fill="#272A28"/>
<rect x="100.882" width="15.1324" height="15.1324" rx="7.56618" fill="#272A28"/>
<rect x="126.103" width="15.1324" height="15.1324" rx="7.56618" fill="#272A28"/>
<rect x="151.323" width="15.1324" height="15.1324" rx="7.56618" fill="#1B8644"/>
<rect x="176.544" width="15.1324" height="15.1324" rx="7.56618" fill="#1B8644"/>
<rect x="201.765" width="15.1324" height="15.1324" rx="7.56618" fill="#272A28"/>
<rect x="226.985" width="15.1324" height="15.1324" rx="7.56618" fill="#272A28"/>
<rect x="252.206" width="15.1324" height="15.1324" rx="7.56618" fill="#272A28"/>
<rect y="25.2207" width="15.1324" height="15.1324" rx="7.56618" fill="#272A28"/>
<rect x="25.2206" y="25.2207" width="15.1324" height="15.1324" rx="7.56618" fill="#272A28"/>
<rect x="50.4412" y="25.2207" width="15.1324" height="15.1324" rx="7.56618" fill="#272A28"/>
<rect x="75.6617" y="25.2207" width="15.1324" height="15.1324" rx="7.56618" fill="#272A28"/>
<rect x="100.882" y="25.2207" width="15.1324" height="15.1324" rx="7.56618" fill="#272A28"/>
<rect x="126.103" y="25.2207" width="15.1324" height="15.1324" rx="7.56618" fill="#272A28"/>
<rect x="151.323" y="25.2207" width="15.1324" height="15.1324" rx="7.56618" fill="#3B953F"/>
<rect x="176.544" y="25.2207" width="15.1324" height="15.1324" rx="7.56618" fill="#3B953F"/>
<rect x="201.765" y="25.2207" width="15.1324" height="15.1324" rx="7.56618" fill="#272A28"/>
<rect x="226.985" y="25.2207" width="15.1324" height="15.1324" rx="7.56618" fill="#272A28"/>
<rect x="252.206" y="25.2207" width="15.1324" height="15.1324" rx="7.56618" fill="#272A28"/>
<rect y="50.4412" width="15.1324" height="15.1324" rx="7.56618" fill="#272A28"/>
<rect x="25.2206" y="50.4412" width="15.1324" height="15.1324" rx="7.56618" fill="#272A28"/>
<rect x="50.4412" y="50.4412" width="15.1324" height="15.1324" rx="7.56618" fill="#3B953F"/>
<rect x="75.6617" y="50.4412" width="15.1324" height="15.1324" rx="7.56618" fill="#3B953F"/>
<rect x="100.882" y="50.4412" width="15.1324" height="15.1324" rx="7.56618" fill="#272A28"/>
<rect x="126.103" y="50.4412" width="15.1324" height="15.1324" rx="7.56618" fill="#272A28"/>
<rect x="151.323" y="50.4412" width="15.1324" height="15.1324" rx="7.56618" fill="#63A839"/>
<rect x="176.544" y="50.4412" width="15.1324" height="15.1324" rx="7.56618" fill="#63A839"/>
<rect x="201.765" y="50.4412" width="15.1324" height="15.1324" rx="7.56618" fill="#272A28"/>
<rect x="226.985" y="50.4412" width="15.1324" height="15.1324" rx="7.56618" fill="#272A28"/>
<rect x="252.206" y="50.4412" width="15.1324" height="15.1324" rx="7.56618" fill="#3B953F"/>
<rect y="75.6619" width="15.1324" height="15.1324" rx="7.56618" fill="#272A28"/>
<rect x="25.2206" y="75.6619" width="15.1324" height="15.1324" rx="7.56618" fill="#272A28"/>
<rect x="50.4412" y="75.6619" width="15.1324" height="15.1324" rx="7.56618" fill="#3B953F"/>
<rect x="75.6619" y="75.6616" width="15.1324" height="15.1324" rx="7.56618" fill="#3B953F"/>
<rect x="100.882" y="75.6619" width="15.1324" height="15.1324" rx="7.56618" fill="#63A839"/>
<rect x="126.103" y="75.6619" width="15.1324" height="15.1324" rx="7.56618" fill="#272A28"/>
<rect x="151.323" y="75.6619" width="15.1324" height="15.1324" rx="7.56618" fill="#97C130"/>
<rect x="176.544" y="75.6619" width="15.1324" height="15.1324" rx="7.56618" fill="#97C130"/>
<rect x="201.765" y="75.6619" width="15.1324" height="15.1324" rx="7.56618" fill="#272A28"/>
<rect x="226.985" y="75.6619" width="15.1324" height="15.1324" rx="7.56618" fill="#63A839"/>
<rect x="252.206" y="75.6619" width="15.1324" height="15.1324" rx="7.56618" fill="#3B953F"/>
<rect y="100.882" width="15.1324" height="15.1324" rx="7.56618" fill="#272A28"/>
<rect x="25.2206" y="100.882" width="15.1324" height="15.1324" rx="7.56618" fill="#272A28"/>
<rect x="50.4412" y="100.882" width="15.1324" height="15.1324" rx="7.56618" fill="#272A28"/>
<rect x="75.6617" y="100.882" width="15.1324" height="15.1324" rx="7.56618" fill="#63A839"/>
<rect x="100.882" y="100.882" width="15.1324" height="15.1324" rx="7.56618" fill="#63A839"/>
<rect x="126.103" y="100.882" width="15.1324" height="15.1324" rx="7.56618" fill="#B0CD2C"/>
<rect x="151.323" y="100.882" width="15.1324" height="15.1324" rx="7.56618" fill="#B0CD2C"/>
<rect x="176.544" y="100.882" width="15.1324" height="15.1324" rx="7.56618" fill="#B0CD2C"/>
<rect x="201.765" y="100.882" width="15.1324" height="15.1324" rx="7.56618" fill="#B0CD2C"/>
<rect x="226.985" y="100.882" width="15.1324" height="15.1324" rx="7.56618" fill="#63A839"/>
<rect x="252.206" y="100.882" width="15.1324" height="15.1324" rx="7.56618" fill="#63A839"/>
<rect y="126.103" width="15.1324" height="15.1324" rx="7.56618" fill="#272A28"/>
<rect x="25.2206" y="126.103" width="15.1324" height="15.1324" rx="7.56618" fill="#272A28"/>
<rect x="50.4412" y="126.103" width="15.1324" height="15.1324" rx="7.56618" fill="#272A28"/>
<rect x="75.6619" y="126.103" width="15.1324" height="15.1324" rx="7.56618" fill="#272A28"/>
<rect x="100.882" y="126.103" width="15.1324" height="15.1324" rx="7.56618" fill="#B0CD2C"/>
<rect x="126.103" y="126.103" width="15.1324" height="15.1324" rx="7.56618" fill="#C9D927"/>
<rect x="151.323" y="126.103" width="15.1324" height="15.1324" rx="7.56618" fill="#C9D927"/>
<rect x="176.544" y="126.103" width="15.1324" height="15.1324" rx="7.56618" fill="#C9D927"/>
<rect x="201.765" y="126.103" width="15.1324" height="15.1324" rx="7.56618" fill="#C9D927"/>
<rect x="226.985" y="126.103" width="15.1324" height="15.1324" rx="7.56618" fill="#B0CD2C"/>
<rect x="252.206" y="126.103" width="15.1324" height="15.1324" rx="7.56618" fill="#272A28"/>
<rect y="151.323" width="15.1324" height="15.1324" rx="7.56618" fill="#1B8644"/>
<rect x="25.2206" y="151.323" width="15.1324" height="15.1324" rx="7.56618" fill="#3B953F"/>
<rect x="50.4412" y="151.323" width="15.1324" height="15.1324" rx="7.56618" fill="#63A839"/>
<rect x="75.6617" y="151.323" width="15.1324" height="15.1324" rx="7.56618" fill="#97C130"/>
<rect x="100.882" y="151.323" width="15.1324" height="15.1324" rx="7.56618" fill="#B0CD2C"/>
<rect x="126.103" y="151.323" width="15.1324" height="15.1324" rx="7.56618" fill="#C9D927"/>
<rect x="151.323" y="151.323" width="15.1324" height="15.1324" rx="7.56618" fill="#272A28"/>
<rect x="176.544" y="151.323" width="15.1324" height="15.1324" rx="7.56618" fill="#272A28"/>
<rect x="201.765" y="151.323" width="15.1324" height="15.1324" rx="7.56618" fill="#C9D927"/>
<rect x="226.985" y="151.323" width="15.1324" height="15.1324" rx="7.56618" fill="#B0CD2C"/>
<rect x="252.206" y="151.323" width="15.1324" height="15.1324" rx="7.56618" fill="#97C130"/>
<rect y="176.544" width="15.1324" height="15.1324" rx="7.56618" fill="#1B8644"/>
<rect x="25.2206" y="176.544" width="15.1324" height="15.1324" rx="7.56618" fill="#3B953F"/>
<rect x="50.4412" y="176.544" width="15.1324" height="15.1324" rx="7.56618" fill="#63A839"/>
<rect x="75.6619" y="176.544" width="15.1324" height="15.1324" rx="7.56618" fill="#97C130"/>
<rect x="100.882" y="176.544" width="15.1324" height="15.1324" rx="7.56618" fill="#B0CD2C"/>
<rect x="126.103" y="176.544" width="15.1324" height="15.1324" rx="7.56618" fill="#C9D927"/>
<rect x="151.323" y="176.544" width="15.1324" height="15.1324" rx="7.56618" fill="#272A28"/>
<rect x="176.544" y="176.544" width="15.1324" height="15.1324" rx="7.56618" fill="#272A28"/>
<rect x="201.765" y="176.544" width="15.1324" height="15.1324" rx="7.56618" fill="#C9D927"/>
<rect x="226.985" y="176.544" width="15.1324" height="15.1324" rx="7.56618" fill="#B0CD2C"/>
<rect x="252.206" y="176.544" width="15.1324" height="15.1324" rx="7.56618" fill="#97C130"/>
<rect y="201.765" width="15.1324" height="15.1324" rx="7.56618" fill="#272A28"/>
<rect x="25.2206" y="201.765" width="15.1324" height="15.1324" rx="7.56618" fill="#272A28"/>
<rect x="50.4412" y="201.765" width="15.1324" height="15.1324" rx="7.56618" fill="#272A28"/>
<rect x="75.6617" y="201.765" width="15.1324" height="15.1324" rx="7.56618" fill="#272A28"/>
<rect x="100.882" y="201.765" width="15.1324" height="15.1324" rx="7.56618" fill="#B0CD2C"/>
<rect x="126.103" y="201.765" width="15.1324" height="15.1324" rx="7.56618" fill="#C9D927"/>
<rect x="151.323" y="201.765" width="15.1324" height="15.1324" rx="7.56618" fill="#C9D927"/>
<rect x="176.544" y="201.765" width="15.1324" height="15.1324" rx="7.56618" fill="#C9D927"/>
<rect x="201.765" y="201.765" width="15.1324" height="15.1324" rx="7.56618" fill="#C9D927"/>
<rect x="226.985" y="201.765" width="15.1324" height="15.1324" rx="7.56618" fill="#B0CD2C"/>
<rect x="252.206" y="201.765" width="15.1324" height="15.1324" rx="7.56618" fill="#272A28"/>
<rect y="226.985" width="15.1324" height="15.1324" rx="7.56618" fill="#272A28"/>
<rect x="25.2206" y="226.985" width="15.1324" height="15.1324" rx="7.56618" fill="#272A28"/>
<rect x="50.4412" y="226.985" width="15.1324" height="15.1324" rx="7.56618" fill="#272A28"/>
<rect x="75.6617" y="226.985" width="15.1324" height="15.1324" rx="7.56618" fill="#63A839"/>
<rect x="100.882" y="226.985" width="15.1324" height="15.1324" rx="7.56618" fill="#63A839"/>
<rect x="126.103" y="226.985" width="15.1324" height="15.1324" rx="7.56618" fill="#B0CD2C"/>
<rect x="151.323" y="226.985" width="15.1324" height="15.1324" rx="7.56618" fill="#B0CD2C"/>
<rect x="176.544" y="226.985" width="15.1324" height="15.1324" rx="7.56618" fill="#B0CD2C"/>
<rect x="201.765" y="226.985" width="15.1324" height="15.1324" rx="7.56618" fill="#B0CD2C"/>
<rect x="226.985" y="226.985" width="15.1324" height="15.1324" rx="7.56618" fill="#63A839"/>
<rect x="252.206" y="226.985" width="15.1324" height="15.1324" rx="7.56618" fill="#63A839"/>
</g>
<defs>
<clipPath id="clip0_551_2179">
<rect width="343" height="343" rx="80" fill="white"/>
</clipPath>
</defs>
</svg>
