<svg width="94" height="40" viewBox="0 0 94 40" fill="none" xmlns="http://www.w3.org/2000/svg">
<g clip-path="url(#clip0_551_2011)">
<path d="M41.8669 30.652C41.1102 30.6658 40.36 30.5111 39.6706 30.199C39.0638 29.9207 38.5339 29.499 38.1263 28.9704C37.7163 28.4223 37.4348 27.789 37.3027 27.1173C37.1545 26.3534 37.1545 25.5682 37.3027 24.8043C37.5732 23.216 38.3711 21.7653 39.5676 20.6863C40.1519 20.1691 40.8235 19.7601 41.5511 19.4783C42.3078 19.1822 43.1133 19.0308 43.9259 19.0322C44.6716 19.0173 45.4117 19.1648 46.0947 19.4646C46.6942 19.7328 47.216 20.1484 47.6115 20.6726C48.0143 21.2166 48.2867 21.8459 48.4077 22.5119C48.5516 23.2716 48.5516 24.0515 48.4077 24.8112C48.276 25.621 48.0092 26.4028 47.6184 27.1242C47.2529 27.8195 46.7699 28.4465 46.1908 28.9773C45.6132 29.4999 44.9458 29.9137 44.221 30.199C43.4726 30.4994 42.6734 30.6532 41.8669 30.652ZM45.0103 25.0651C45.092 24.6121 45.1333 24.1528 45.1338 23.6925C45.141 23.281 45.0831 22.871 44.9623 22.4776C44.8676 22.1469 44.6849 21.848 44.4338 21.6128C44.1674 21.3842 43.8235 21.2663 43.4729 21.2834C43.108 21.2794 42.7493 21.3768 42.4365 21.5648C42.1206 21.7622 41.8457 22.0185 41.6266 22.3198C41.3818 22.648 41.1832 23.0082 41.0364 23.3905C40.8783 23.7894 40.761 24.2033 40.6864 24.6259C40.6083 25.0793 40.5692 25.5385 40.5697 25.9986C40.571 26.407 40.6382 26.8126 40.7687 27.1997C40.879 27.5278 41.0702 27.8229 41.3246 28.0576C41.5997 28.2852 41.9495 28.4026 42.3061 28.387C42.6524 28.4005 42.9953 28.3148 43.2945 28.14C43.6073 27.9464 43.878 27.692 44.0906 27.3918C44.3262 27.0612 44.5177 26.7013 44.6603 26.3211C44.8133 25.9145 44.9259 25.4938 44.9966 25.0651H45.0103Z" fill="#00A651"/>
<path d="M53.5964 26.4997C53.5514 26.7857 53.5307 27.075 53.5346 27.3644C53.5274 27.551 53.5554 27.7373 53.617 27.9135C53.6644 28.0347 53.7515 28.1364 53.8641 28.2018C53.9838 28.2593 54.1156 28.2876 54.2484 28.2841C54.5785 28.2886 54.9079 28.2541 55.2299 28.1812C55.494 28.1225 55.7515 28.0374 55.9986 27.9272C56.2096 27.8334 56.4117 27.7209 56.6026 27.5909C56.6588 27.5507 56.7236 27.5239 56.7918 27.5125C56.8601 27.5012 56.93 27.5056 56.9963 27.5255C57.0625 27.5454 57.1234 27.5802 57.1741 27.6272C57.2248 27.6742 57.2641 27.7323 57.2889 27.7968L57.6527 28.7577C57.6927 28.8542 57.6982 28.9616 57.6682 29.0616C57.6382 29.1617 57.5745 29.2483 57.488 29.3068L57.2546 29.4647C56.945 29.6657 56.619 29.8402 56.28 29.9863C55.8212 30.1837 55.3458 30.3399 54.8593 30.453C54.2536 30.5907 53.6341 30.6575 53.013 30.652C52.4204 30.6857 51.8292 30.5651 51.2971 30.302C50.9124 30.0933 50.6082 29.7625 50.4324 29.3617C50.2617 28.9251 50.1868 28.457 50.2127 27.989C50.237 27.4205 50.2989 26.8541 50.398 26.2938L51.1462 22.059C51.1584 21.993 51.1558 21.9252 51.1385 21.8603C51.1213 21.7954 51.0899 21.7352 51.0465 21.684C51.0032 21.6328 50.949 21.5918 50.8879 21.5641C50.8268 21.5364 50.7603 21.5226 50.6932 21.5237H49.3205C49.2531 21.5238 49.1865 21.509 49.1254 21.4805C49.0643 21.452 49.0102 21.4104 48.967 21.3587C48.9238 21.3069 48.8925 21.2463 48.8753 21.1811C48.8581 21.116 48.8554 21.0478 48.8675 20.9815L49.1146 19.6088C49.1306 19.5025 49.1832 19.4052 49.2635 19.3338C49.3437 19.2623 49.4464 19.2212 49.5538 19.2176H51.2628C51.3706 19.2177 51.475 19.18 51.5578 19.111C51.6406 19.042 51.6965 18.9461 51.7158 18.8401L51.9835 17.3301C51.9978 17.25 52.0333 17.1753 52.0865 17.1137C52.1396 17.0521 52.2084 17.0059 52.2855 16.9801L54.6945 16.1771C54.7699 16.1522 54.8504 16.1473 54.9283 16.1628C55.0061 16.1783 55.0786 16.2137 55.1387 16.2655C55.1988 16.3173 55.2445 16.3838 55.2713 16.4585C55.2981 16.5332 55.3051 16.6136 55.2917 16.6918L54.9416 18.6822C54.9295 18.7476 54.932 18.8149 54.9488 18.8793C54.9657 18.9436 54.9965 19.0035 55.0391 19.0546C55.0817 19.1057 55.135 19.1468 55.1952 19.1749C55.2555 19.2031 55.3212 19.2177 55.3877 19.2176H58.9361C59.0075 19.2178 59.0779 19.2347 59.1416 19.2669C59.2053 19.299 59.2607 19.3456 59.3033 19.4029C59.3459 19.4602 59.3747 19.5266 59.3872 19.5968C59.3997 19.6671 59.3956 19.7394 59.3754 19.8078L58.9636 21.1805C58.9346 21.2748 58.8764 21.3575 58.7975 21.4167C58.7186 21.4758 58.623 21.5085 58.5243 21.51H54.8593C54.7523 21.5101 54.6488 21.548 54.5672 21.6171C54.4855 21.6862 54.431 21.782 54.4131 21.8874L53.5964 26.4997Z" fill="#00A651"/>
<path d="M64.8729 26.4999C64.8169 26.785 64.7848 27.0743 64.7768 27.3647C64.7688 27.5519 64.7991 27.7387 64.866 27.9138C64.9093 28.0375 64.9975 28.1404 65.1131 28.202C65.2326 28.2604 65.3646 28.2886 65.4975 28.2844C66.1043 28.2945 66.7062 28.1727 67.2614 27.9275C67.471 27.8352 67.671 27.7226 67.8585 27.5912C67.9152 27.5523 67.9798 27.5265 68.0478 27.5159C68.1157 27.5053 68.1851 27.51 68.251 27.5298C68.3168 27.5495 68.3774 27.5838 68.4283 27.6301C68.4791 27.6763 68.519 27.7334 68.5448 27.7971L68.9292 28.7648C68.9693 28.8613 68.9747 28.9687 68.9447 29.0687C68.9147 29.1688 68.851 29.2554 68.7645 29.3139L68.5311 29.4718C68.2191 29.6727 67.8908 29.8472 67.5496 29.9934C67.0916 30.1929 66.616 30.3491 66.1289 30.4601C65.5257 30.5982 64.9083 30.665 64.2895 30.6591C63.6949 30.6906 63.102 30.5701 62.5668 30.3091C62.1827 30.1018 61.8802 29.7703 61.7089 29.3688C61.5382 28.9322 61.4633 28.4641 61.4892 27.9961C61.5135 27.4276 61.5754 26.8612 61.6746 26.3009L62.4158 22.0661C62.4279 22.0007 62.4254 21.9334 62.4086 21.8691C62.3918 21.8047 62.3609 21.7449 62.3184 21.6938C62.2758 21.6427 62.2225 21.6016 62.1622 21.5734C62.1019 21.5452 62.0362 21.5307 61.9697 21.5308H60.597C60.5302 21.5299 60.4643 21.5144 60.4041 21.4854C60.3439 21.4565 60.2906 21.4148 60.2482 21.3631C60.2057 21.3115 60.175 21.2513 60.1582 21.1866C60.1414 21.1219 60.1389 21.0543 60.1509 20.9886L60.398 19.6159C60.4158 19.5104 60.4704 19.4147 60.552 19.3456C60.6337 19.2765 60.7371 19.2385 60.8441 19.2384H62.5599C62.6677 19.2385 62.7721 19.2008 62.8549 19.1318C62.9377 19.0628 62.9936 18.9669 63.0129 18.8609L63.2737 17.351C63.2906 17.2709 63.3279 17.1966 63.382 17.1352C63.4362 17.0739 63.5053 17.0276 63.5826 17.0009L65.9916 16.1979C66.0667 16.1724 66.1472 16.1671 66.2249 16.1825C66.3027 16.1979 66.3751 16.2334 66.4348 16.2855C66.4946 16.3376 66.5396 16.4045 66.5654 16.4794C66.5912 16.5544 66.5969 16.6348 66.5819 16.7127L66.2387 18.7031C66.2266 18.7685 66.2291 18.8357 66.2459 18.9001C66.2628 18.9644 66.2936 19.0243 66.3362 19.0754C66.3788 19.1265 66.4321 19.1676 66.4923 19.1958C66.5526 19.2239 66.6183 19.2385 66.6849 19.2384H70.2332C70.3046 19.2387 70.375 19.2555 70.4387 19.2877C70.5024 19.3199 70.5578 19.3664 70.6004 19.4237C70.6431 19.481 70.6718 19.5474 70.6843 19.6177C70.6968 19.688 70.6927 19.7602 70.6725 19.8287L70.2538 21.2013C70.2271 21.2956 70.1705 21.3787 70.0925 21.4381C70.0146 21.4975 69.9194 21.53 69.8214 21.5308H66.1358C66.028 21.5306 65.9236 21.5684 65.8408 21.6374C65.758 21.7064 65.7021 21.8022 65.6828 21.9083L64.8729 26.4999Z" fill="#00A651"/>
<path d="M75.6762 30.6521C74.9247 30.6661 74.1794 30.5137 73.4936 30.206C72.8869 29.9277 72.3569 29.5061 71.9493 28.9775C71.5366 28.4309 71.2548 27.7969 71.1257 27.1243C70.9776 26.3605 70.9776 25.5752 71.1257 24.8114C71.3963 23.2231 72.1942 21.7723 73.3907 20.6933C73.9749 20.1761 74.6466 19.7671 75.3742 19.4853C76.1317 19.1939 76.9373 19.0472 77.7489 19.0529C78.4947 19.038 79.2348 19.1856 79.9178 19.4853C80.5172 19.7536 81.039 20.1691 81.4346 20.6933C81.8373 21.2374 82.1097 21.8667 82.2307 22.5327C82.3746 23.2924 82.3746 24.0723 82.2307 24.8319C82.0991 25.6417 81.8322 26.4236 81.4415 27.1449C81.0759 27.8403 80.593 28.4672 80.0139 28.998C79.4346 29.5133 78.7674 29.9201 78.0441 30.1991C77.2913 30.5013 76.4873 30.6551 75.6762 30.6521ZM78.8196 25.0653C78.9013 24.6123 78.9426 24.1529 78.9432 23.6926C78.9503 23.2812 78.8924 22.8712 78.7716 22.4778C78.6769 22.147 78.4943 21.8481 78.2431 21.613C77.9767 21.3844 77.6329 21.2665 77.2822 21.2836C76.9174 21.2796 76.5586 21.377 76.2458 21.565C75.9299 21.7623 75.655 22.0187 75.436 22.3199C75.1912 22.6481 74.9925 23.0084 74.8457 23.3906C74.6876 23.7896 74.5703 24.2035 74.4957 24.626C74.4142 25.079 74.3752 25.5385 74.379 25.9987C74.3803 26.4072 74.4475 26.8128 74.578 27.1998C74.6883 27.528 74.8795 27.8231 75.134 28.0578C75.409 28.2853 75.7588 28.4027 76.1154 28.3872C76.4704 28.391 76.8188 28.2908 77.1175 28.0989C77.4303 27.9054 77.7011 27.651 77.9136 27.3508C78.1492 27.0202 78.3407 26.6603 78.4833 26.2801C78.6338 25.8868 78.7464 25.48 78.8196 25.0653Z" fill="#00A651"/>
<path d="M85.2437 30.4805H82.5463C82.5068 30.479 82.4681 30.4691 82.4326 30.4517C82.3971 30.4342 82.3657 30.4094 82.3405 30.379C82.3152 30.3485 82.2966 30.3131 82.286 30.275C82.2753 30.2369 82.2728 30.197 82.2787 30.1579L84.173 19.4166C84.1875 19.3614 84.2194 19.3124 84.2638 19.2766C84.3083 19.2407 84.363 19.2201 84.4201 19.2176L87.1654 19.046C87.207 19.0433 87.2487 19.05 87.2873 19.0658C87.3259 19.0816 87.3604 19.1059 87.3882 19.137C87.416 19.1681 87.4363 19.2051 87.4477 19.2452C87.459 19.2854 87.4611 19.3275 87.4537 19.3686C87.4452 19.4258 87.455 19.4843 87.4817 19.5356C87.5085 19.5869 87.5507 19.6285 87.6025 19.6544C87.6542 19.6803 87.7128 19.6891 87.7699 19.6797C87.827 19.6703 87.8797 19.6431 87.9204 19.6019L88.2155 19.2931C88.25 19.2534 88.2953 19.2248 88.3459 19.2107C88.6036 19.1531 88.8651 19.1141 89.1284 19.094C89.4303 19.094 89.7804 19.0597 90.1785 19.0597C90.7331 19.0477 91.2851 19.1409 91.8051 19.3343C92.2404 19.4957 92.6277 19.7649 92.9307 20.1167C93.2251 20.4708 93.4257 20.8933 93.5141 21.3453C93.6134 21.8806 93.6134 22.4297 93.5141 22.965L92.2306 30.2814C92.2194 30.3445 92.1865 30.4016 92.1377 30.443C92.0888 30.4843 92.027 30.5073 91.963 30.5079H89.2244C89.1845 30.5075 89.1452 30.4985 89.1092 30.4813C89.0731 30.4642 89.0413 30.4394 89.0158 30.4087C88.9903 30.378 88.9718 30.3421 88.9616 30.3035C88.9514 30.265 88.9498 30.2246 88.9568 30.1853L90.2196 22.965C90.2642 22.7246 90.2642 22.478 90.2196 22.2375C90.1822 22.0553 90.0996 21.8854 89.9794 21.7433C89.8633 21.6139 89.7172 21.5149 89.5539 21.4551C89.3798 21.3939 89.1962 21.3637 89.0117 21.3658C88.6243 21.3588 88.2393 21.4288 87.8792 21.5717C87.5535 21.7219 87.2526 21.9209 86.987 22.162C86.9383 22.2014 86.9064 22.2578 86.8977 22.3199L85.5251 30.2814C85.5079 30.3417 85.4707 30.3944 85.4195 30.4306C85.3683 30.4668 85.3062 30.4844 85.2437 30.4805Z" fill="#00A651"/>
<path d="M41.8669 30.652C41.1102 30.6658 40.36 30.5111 39.6706 30.199C39.0638 29.9207 38.5339 29.499 38.1263 28.9704C37.7163 28.4223 37.4348 27.789 37.3027 27.1173C37.1545 26.3534 37.1545 25.5682 37.3027 24.8043C37.5732 23.216 38.3711 21.7653 39.5676 20.6863C40.1519 20.1691 40.8235 19.7601 41.5511 19.4783C42.3078 19.1822 43.1133 19.0308 43.9259 19.0322C44.6716 19.0173 45.4117 19.1648 46.0947 19.4646C46.6942 19.7328 47.216 20.1484 47.6115 20.6726C48.0143 21.2166 48.2867 21.8459 48.4077 22.5119C48.5516 23.2716 48.5516 24.0515 48.4077 24.8112C48.276 25.621 48.0092 26.4028 47.6184 27.1242C47.2529 27.8195 46.7699 28.4465 46.1908 28.9773C45.6132 29.4999 44.9458 29.9137 44.221 30.199C43.4726 30.4994 42.6734 30.6532 41.8669 30.652ZM45.0103 25.0651C45.092 24.6121 45.1333 24.1528 45.1338 23.6925C45.141 23.281 45.0831 22.871 44.9623 22.4776C44.8676 22.1469 44.6849 21.848 44.4338 21.6128C44.1674 21.3842 43.8235 21.2663 43.4729 21.2834C43.108 21.2794 42.7493 21.3768 42.4365 21.5648C42.1206 21.7622 41.8457 22.0185 41.6266 22.3198C41.3818 22.648 41.1832 23.0082 41.0364 23.3905C40.8783 23.7894 40.761 24.2033 40.6864 24.6259C40.6083 25.0793 40.5692 25.5385 40.5697 25.9986C40.571 26.407 40.6382 26.8126 40.7687 27.1997C40.879 27.5278 41.0702 27.8229 41.3246 28.0576C41.5997 28.2852 41.9495 28.4026 42.3061 28.387C42.6524 28.4005 42.9953 28.3148 43.2945 28.14C43.6073 27.9464 43.878 27.692 44.0906 27.3918C44.3262 27.0612 44.5177 26.7013 44.6603 26.3211C44.8133 25.9145 44.9259 25.4938 44.9966 25.0651H45.0103Z" fill="#121212"/>
<path d="M53.5964 26.4997C53.5514 26.7857 53.5307 27.075 53.5346 27.3644C53.5274 27.551 53.5554 27.7373 53.617 27.9135C53.6644 28.0347 53.7515 28.1364 53.8641 28.2018C53.9838 28.2593 54.1156 28.2876 54.2484 28.2841C54.5785 28.2886 54.9079 28.2541 55.2299 28.1812C55.494 28.1225 55.7515 28.0374 55.9986 27.9272C56.2096 27.8334 56.4117 27.7209 56.6026 27.5909C56.6588 27.5507 56.7236 27.5239 56.7918 27.5125C56.8601 27.5012 56.93 27.5056 56.9963 27.5255C57.0625 27.5454 57.1234 27.5802 57.1741 27.6272C57.2248 27.6742 57.2641 27.7323 57.2889 27.7968L57.6527 28.7577C57.6927 28.8542 57.6982 28.9616 57.6682 29.0616C57.6382 29.1617 57.5745 29.2483 57.488 29.3068L57.2546 29.4647C56.945 29.6657 56.619 29.8402 56.28 29.9863C55.8212 30.1837 55.3458 30.3399 54.8593 30.453C54.2536 30.5907 53.6341 30.6575 53.013 30.652C52.4204 30.6857 51.8292 30.5651 51.2971 30.302C50.9124 30.0933 50.6082 29.7625 50.4324 29.3617C50.2617 28.9251 50.1868 28.457 50.2127 27.989C50.237 27.4205 50.2989 26.8541 50.398 26.2938L51.1462 22.059C51.1584 21.993 51.1558 21.9252 51.1385 21.8603C51.1213 21.7954 51.0899 21.7352 51.0465 21.684C51.0032 21.6328 50.949 21.5918 50.8879 21.5641C50.8268 21.5364 50.7603 21.5226 50.6932 21.5237H49.3205C49.2531 21.5238 49.1865 21.509 49.1254 21.4805C49.0643 21.452 49.0102 21.4104 48.967 21.3587C48.9238 21.3069 48.8925 21.2463 48.8753 21.1811C48.8581 21.116 48.8554 21.0478 48.8675 20.9815L49.1146 19.6088C49.1306 19.5025 49.1832 19.4052 49.2635 19.3338C49.3437 19.2623 49.4464 19.2212 49.5538 19.2176H51.2628C51.3706 19.2177 51.475 19.18 51.5578 19.111C51.6406 19.042 51.6965 18.9461 51.7158 18.8401L51.9835 17.3301C51.9978 17.25 52.0333 17.1753 52.0865 17.1137C52.1396 17.0521 52.2084 17.0059 52.2855 16.9801L54.6945 16.1771C54.7699 16.1522 54.8504 16.1473 54.9283 16.1628C55.0061 16.1783 55.0786 16.2137 55.1387 16.2655C55.1988 16.3173 55.2445 16.3838 55.2713 16.4585C55.2981 16.5332 55.3051 16.6136 55.2917 16.6918L54.9416 18.6822C54.9295 18.7476 54.932 18.8149 54.9488 18.8793C54.9657 18.9436 54.9965 19.0035 55.0391 19.0546C55.0817 19.1057 55.135 19.1468 55.1952 19.1749C55.2555 19.2031 55.3212 19.2177 55.3877 19.2176H58.9361C59.0075 19.2178 59.0779 19.2347 59.1416 19.2669C59.2053 19.299 59.2607 19.3456 59.3033 19.4029C59.3459 19.4602 59.3747 19.5266 59.3872 19.5968C59.3997 19.6671 59.3956 19.7394 59.3754 19.8078L58.9636 21.1805C58.9346 21.2748 58.8764 21.3575 58.7975 21.4167C58.7186 21.4758 58.623 21.5085 58.5243 21.51H54.8593C54.7523 21.5101 54.6488 21.548 54.5672 21.6171C54.4855 21.6862 54.431 21.782 54.4131 21.8874L53.5964 26.4997Z" fill="#121212"/>
<path d="M64.8729 26.4999C64.8169 26.785 64.7848 27.0743 64.7768 27.3647C64.7688 27.5519 64.7991 27.7387 64.866 27.9138C64.9093 28.0375 64.9975 28.1404 65.1131 28.202C65.2326 28.2604 65.3646 28.2886 65.4975 28.2844C66.1043 28.2945 66.7062 28.1727 67.2614 27.9275C67.471 27.8352 67.671 27.7226 67.8585 27.5912C67.9152 27.5523 67.9798 27.5265 68.0478 27.5159C68.1157 27.5053 68.1851 27.51 68.251 27.5298C68.3168 27.5495 68.3774 27.5838 68.4283 27.6301C68.4791 27.6763 68.519 27.7334 68.5448 27.7971L68.9292 28.7648C68.9693 28.8613 68.9747 28.9687 68.9447 29.0687C68.9147 29.1688 68.851 29.2554 68.7645 29.3139L68.5311 29.4718C68.2191 29.6727 67.8908 29.8472 67.5496 29.9934C67.0916 30.1929 66.616 30.3491 66.1289 30.4601C65.5257 30.5982 64.9083 30.665 64.2895 30.6591C63.6949 30.6906 63.102 30.5701 62.5668 30.3091C62.1827 30.1018 61.8802 29.7703 61.7089 29.3688C61.5382 28.9322 61.4633 28.4641 61.4892 27.9961C61.5135 27.4276 61.5754 26.8612 61.6746 26.3009L62.4158 22.0661C62.4279 22.0007 62.4254 21.9334 62.4086 21.8691C62.3918 21.8047 62.3609 21.7449 62.3184 21.6938C62.2758 21.6427 62.2225 21.6016 62.1622 21.5734C62.1019 21.5452 62.0362 21.5307 61.9697 21.5308H60.597C60.5302 21.5299 60.4643 21.5144 60.4041 21.4854C60.3439 21.4565 60.2906 21.4148 60.2482 21.3631C60.2057 21.3115 60.175 21.2513 60.1582 21.1866C60.1414 21.1219 60.1389 21.0543 60.1509 20.9886L60.398 19.6159C60.4158 19.5104 60.4704 19.4147 60.552 19.3456C60.6337 19.2765 60.7371 19.2385 60.8441 19.2384H62.5599C62.6677 19.2385 62.7721 19.2008 62.8549 19.1318C62.9377 19.0628 62.9936 18.9669 63.0129 18.8609L63.2737 17.351C63.2906 17.2709 63.3279 17.1966 63.382 17.1352C63.4362 17.0739 63.5053 17.0276 63.5826 17.0009L65.9916 16.1979C66.0667 16.1724 66.1472 16.1671 66.2249 16.1825C66.3027 16.1979 66.3751 16.2334 66.4348 16.2855C66.4946 16.3376 66.5396 16.4045 66.5654 16.4794C66.5912 16.5544 66.5969 16.6348 66.5819 16.7127L66.2387 18.7031C66.2266 18.7685 66.2291 18.8357 66.2459 18.9001C66.2628 18.9644 66.2936 19.0243 66.3362 19.0754C66.3788 19.1265 66.4321 19.1676 66.4923 19.1958C66.5526 19.2239 66.6183 19.2385 66.6849 19.2384H70.2332C70.3046 19.2387 70.375 19.2555 70.4387 19.2877C70.5024 19.3199 70.5578 19.3664 70.6004 19.4237C70.6431 19.481 70.6718 19.5474 70.6843 19.6177C70.6968 19.688 70.6927 19.7602 70.6725 19.8287L70.2538 21.2013C70.2271 21.2956 70.1705 21.3787 70.0925 21.4381C70.0146 21.4975 69.9194 21.53 69.8214 21.5308H66.1358C66.028 21.5306 65.9236 21.5684 65.8408 21.6374C65.758 21.7064 65.7021 21.8022 65.6828 21.9083L64.8729 26.4999Z" fill="#121212"/>
<path d="M75.6762 30.6521C74.9247 30.6661 74.1794 30.5137 73.4936 30.206C72.8869 29.9277 72.3569 29.5061 71.9493 28.9775C71.5366 28.4309 71.2548 27.7969 71.1257 27.1243C70.9776 26.3605 70.9776 25.5752 71.1257 24.8114C71.3963 23.2231 72.1942 21.7723 73.3907 20.6933C73.9749 20.1761 74.6466 19.7671 75.3742 19.4853C76.1317 19.1939 76.9373 19.0472 77.7489 19.0529C78.4947 19.038 79.2348 19.1856 79.9178 19.4853C80.5172 19.7536 81.039 20.1691 81.4346 20.6933C81.8373 21.2374 82.1097 21.8667 82.2307 22.5327C82.3746 23.2924 82.3746 24.0723 82.2307 24.8319C82.0991 25.6417 81.8322 26.4236 81.4415 27.1449C81.0759 27.8403 80.593 28.4672 80.0139 28.998C79.4346 29.5133 78.7674 29.9201 78.0441 30.1991C77.2913 30.5013 76.4873 30.6551 75.6762 30.6521ZM78.8196 25.0653C78.9013 24.6123 78.9426 24.1529 78.9432 23.6926C78.9503 23.2812 78.8924 22.8712 78.7716 22.4778C78.6769 22.147 78.4943 21.8481 78.2431 21.613C77.9767 21.3844 77.6329 21.2665 77.2822 21.2836C76.9174 21.2796 76.5586 21.377 76.2458 21.565C75.9299 21.7623 75.655 22.0187 75.436 22.3199C75.1912 22.6481 74.9925 23.0084 74.8457 23.3906C74.6876 23.7896 74.5703 24.2035 74.4957 24.626C74.4142 25.079 74.3752 25.5385 74.379 25.9987C74.3803 26.4072 74.4475 26.8128 74.578 27.1998C74.6883 27.528 74.8795 27.8231 75.134 28.0578C75.409 28.2853 75.7588 28.4027 76.1154 28.3872C76.4704 28.391 76.8188 28.2908 77.1175 28.0989C77.4303 27.9054 77.7011 27.651 77.9136 27.3508C78.1492 27.0202 78.3407 26.6603 78.4833 26.2801C78.6338 25.8868 78.7464 25.48 78.8196 25.0653Z" fill="#121212"/>
<path d="M85.2437 30.4805H82.5463C82.5068 30.479 82.4681 30.4691 82.4326 30.4517C82.3971 30.4342 82.3657 30.4094 82.3405 30.379C82.3152 30.3485 82.2966 30.3131 82.286 30.275C82.2753 30.2369 82.2728 30.197 82.2787 30.1579L84.173 19.4166C84.1875 19.3614 84.2194 19.3124 84.2638 19.2766C84.3083 19.2407 84.363 19.2201 84.4201 19.2176L87.1654 19.046C87.207 19.0433 87.2487 19.05 87.2873 19.0658C87.3259 19.0816 87.3604 19.1059 87.3882 19.137C87.416 19.1681 87.4363 19.2051 87.4477 19.2452C87.459 19.2854 87.4611 19.3275 87.4537 19.3686C87.4452 19.4258 87.455 19.4843 87.4817 19.5356C87.5085 19.5869 87.5507 19.6285 87.6025 19.6544C87.6542 19.6803 87.7128 19.6891 87.7699 19.6797C87.827 19.6703 87.8797 19.6431 87.9204 19.6019L88.2155 19.2931C88.25 19.2534 88.2953 19.2248 88.3459 19.2107C88.6036 19.1531 88.8651 19.1141 89.1284 19.094C89.4303 19.094 89.7804 19.0597 90.1785 19.0597C90.7331 19.0477 91.2851 19.1409 91.8051 19.3343C92.2404 19.4957 92.6277 19.7649 92.9307 20.1167C93.2251 20.4708 93.4257 20.8933 93.5141 21.3453C93.6134 21.8806 93.6134 22.4297 93.5141 22.965L92.2306 30.2814C92.2194 30.3445 92.1865 30.4016 92.1377 30.443C92.0888 30.4843 92.027 30.5073 91.963 30.5079H89.2244C89.1845 30.5075 89.1452 30.4985 89.1092 30.4813C89.0731 30.4642 89.0413 30.4394 89.0158 30.4087C88.9903 30.378 88.9718 30.3421 88.9616 30.3035C88.9514 30.265 88.9498 30.2246 88.9568 30.1853L90.2196 22.965C90.2642 22.7246 90.2642 22.478 90.2196 22.2375C90.1822 22.0553 90.0996 21.8854 89.9794 21.7433C89.8633 21.6139 89.7172 21.5149 89.5539 21.4551C89.3798 21.3939 89.1962 21.3637 89.0117 21.3658C88.6243 21.3588 88.2393 21.4288 87.8792 21.5717C87.5535 21.7219 87.2526 21.9209 86.987 22.162C86.9383 22.2014 86.9064 22.2578 86.8977 22.3199L85.5251 30.2814C85.5079 30.3417 85.4707 30.3944 85.4195 30.4306C85.3683 30.4668 85.3062 30.4844 85.2437 30.4805Z" fill="#121212"/>
<path d="M35.3466 32.78C35.1904 33.0451 34.9988 33.2876 34.7769 33.5007C29.8284 38.71 23.7612 40.7347 16.6781 39.767C12.8157 39.2214 9.20944 37.5178 6.33491 34.881C3.46039 32.2442 1.45265 28.798 0.576527 24.9969C0.336307 23.94 0.192176 22.8555 0 21.7849V18.4424C0.0960879 17.8521 0.164722 17.2619 0.2814 16.6785C2.69167 21.045 6.22974 24.6846 10.5264 27.2175C14.823 29.7503 19.7207 31.0835 24.7083 31.0779C25.5388 31.0779 26.3624 31.0367 27.1723 30.9681C29.3686 30.9681 31.5649 30.9681 33.7612 30.9681C33.9896 30.9512 34.219 30.9512 34.4475 30.9681C34.6444 30.9965 34.8316 31.0723 34.9927 31.189C35.1539 31.3057 35.2843 31.4598 35.3728 31.638C35.4612 31.8163 35.5051 32.0133 35.5005 32.2123C35.4959 32.4112 35.4431 32.606 35.3466 32.78Z" fill="url(#paint0_linear_551_2011)"/>
<path d="M39.2999 14.523V15.326C39.1131 15.6116 38.8504 15.8394 38.5411 15.9837C38.2319 16.128 37.8886 16.1831 37.5497 16.1428C34.5298 16.1084 31.5168 16.1428 28.5037 16.1428C28.2847 16.1719 28.0618 16.1428 27.8576 16.0583C27.6534 15.9738 27.4751 15.8369 27.3407 15.6614C27.2063 15.486 27.1206 15.2782 27.0923 15.059C27.0639 14.8398 27.0938 14.6171 27.1791 14.4132C27.5291 13.0405 27.9135 11.7159 28.2361 10.3569C28.3286 10.0323 28.3545 9.69237 28.312 9.35754C28.2696 9.02271 28.1598 8.69995 27.9891 8.40875C27.8185 8.11754 27.5907 7.86392 27.3193 7.66321C27.048 7.46249 26.7388 7.31883 26.4104 7.24091C26.3044 7.18772 26.1885 7.15709 26.0701 7.15094C25.9517 7.14479 25.8333 7.16326 25.7224 7.20518C25.6114 7.2471 25.5104 7.31156 25.4256 7.3945C25.3409 7.47743 25.2742 7.57704 25.2299 7.68703C22.8002 11.9492 20.3157 16.1839 17.9272 20.4736C17.4275 21.4012 17.1407 22.4284 17.0875 23.4806C17.0342 24.5329 17.216 25.5838 17.6195 26.5571C18.023 27.5304 18.6381 28.4016 19.4203 29.1075C20.2024 29.8134 21.1319 30.3364 22.1414 30.6383C23.1878 30.8761 24.2602 30.9798 25.3328 30.9471H27.1517C26.3418 31.0158 25.5182 31.057 24.6877 31.057C19.7056 31.0609 14.8136 29.7291 10.5211 27.2002C6.22864 24.6713 2.69264 21.0378 0.281372 16.6781C0.281372 16.5683 0.322553 16.4585 0.343143 16.3555C2.08645 8.30702 6.90228 3.08396 14.7906 0.686342C15.9943 0.391106 17.2133 0.161983 18.442 0L21.5511 0L22.9581 0.219629C25.8642 0.621856 28.642 1.67514 31.0842 3.3009C33.5264 4.92665 35.57 7.08291 37.0624 9.60878C37.9118 11.1977 38.6591 12.8391 39.2999 14.523Z" fill="url(#paint1_linear_551_2011)"/>
</g>
<defs>
<linearGradient id="paint0_linear_551_2011" x1="0" y1="28.3394" x2="35.4976" y2="28.3394" gradientUnits="userSpaceOnUse">
<stop stop-color="#43B649"/>
<stop offset="0.18" stop-color="#D4DE25"/>
<stop offset="0.39" stop-color="#86B932"/>
<stop offset="0.59" stop-color="#3E973E"/>
<stop offset="0.73" stop-color="#118145"/>
<stop offset="0.8" stop-color="#007948"/>
</linearGradient>
<linearGradient id="paint1_linear_551_2011" x1="13.1434" y1="33.8847" x2="27.7419" y2="-6.32807" gradientUnits="userSpaceOnUse">
<stop offset="0.04" stop-color="#005C34"/>
<stop offset="0.25" stop-color="#025E34"/>
<stop offset="0.37" stop-color="#0A6334"/>
<stop offset="0.46" stop-color="#186D35"/>
<stop offset="0.54" stop-color="#2C7B36"/>
<stop offset="0.62" stop-color="#458D37"/>
<stop offset="0.68" stop-color="#64A339"/>
<stop offset="0.75" stop-color="#89BD3A"/>
<stop offset="0.77" stop-color="#9CCB3B"/>
<stop offset="0.81" stop-color="#BCD828"/>
<stop offset="0.87" stop-color="#ECEB0B"/>
<stop offset="0.9" stop-color="#FFF200"/>
</linearGradient>
<clipPath id="clip0_551_2011">
<rect width="93.5621" height="40" fill="white"/>
</clipPath>
</defs>
</svg>
