<?xml version="1.0" encoding="utf-8"?>
<svg xmlns="http://www.w3.org/2000/svg" viewBox="257.8911 220.8596 136.3585 58.2808" width="136.358px" height="58.2808px" preserveAspectRatio="none"><defs><linearGradient id="linear-gradient" y1="41.29" x2="51.72" y2="41.29" gradientUnits="userSpaceOnUse"><stop offset="0" stop-color="#43b649"/><stop offset="0.18" stop-color="#d4de25"/><stop offset="0.39" stop-color="#86b932"/><stop offset="0.59" stop-color="#3e973e"/><stop offset="0.73" stop-color="#118145"/><stop offset="0.8" stop-color="#007948"/></linearGradient><linearGradient id="linear-gradient-2" x1="19.15" y1="49.37" x2="40.42" y2="-9.22" gradientUnits="userSpaceOnUse"><stop offset="0.04" stop-color="#005c34"/><stop offset="0.25" stop-color="#025e34"/><stop offset="0.37" stop-color="#0a6334"/><stop offset="0.46" stop-color="#186d35"/><stop offset="0.54" stop-color="#2c7b36"/><stop offset="0.62" stop-color="#458d37"/><stop offset="0.68" stop-color="#64a339"/><stop offset="0.75" stop-color="#89bd3a"/><stop offset="0.77" stop-color="#9ccb3b"/><stop offset="0.81" stop-color="#bcd828"/><stop offset="0.87" stop-color="#eceb0b"/><stop offset="0.9" stop-color="#fff200"/></linearGradient></defs><g id="object-12" transform="matrix(1, 0, 0, 1, 257.89111712412705, 220.8596071729005)"><g id="Layer_1-2" data-name="Layer 1"><path class="cls-1" d="M61,44.66A7.43,7.43,0,0,1,57.8,44a6,6,0,0,1-2.25-1.79,6.65,6.65,0,0,1-1.2-2.7,8.85,8.85,0,0,1,0-3.37,10.44,10.44,0,0,1,3.3-6,9.58,9.58,0,0,1,2.89-1.76A9.45,9.45,0,0,1,64,27.73a7.49,7.49,0,0,1,3.16.63,5.67,5.67,0,0,1,2.21,1.76,6.44,6.44,0,0,1,1.16,2.68,9,9,0,0,1,0,3.35,10.67,10.67,0,0,1-1.15,3.37,9.93,9.93,0,0,1-2.08,2.7A9.42,9.42,0,0,1,64.43,44,9.17,9.17,0,0,1,61,44.66Zm4.58-8.14a11.35,11.35,0,0,0,.18-2,5.69,5.69,0,0,0-.25-1.77,2.77,2.77,0,0,0-.77-1.26,2,2,0,0,0-1.4-.48,2.87,2.87,0,0,0-1.51.41,4.23,4.23,0,0,0-1.18,1.1,6.52,6.52,0,0,0-.86,1.56,9.26,9.26,0,0,0-.51,1.8,11.72,11.72,0,0,0-.17,2,5.53,5.53,0,0,0,.29,1.75,3,3,0,0,0,.81,1.25,2.1,2.1,0,0,0,1.43.48A2.65,2.65,0,0,0,63.08,41a4,4,0,0,0,1.16-1.09,6.81,6.81,0,0,0,.83-1.56A9.65,9.65,0,0,0,65.56,36.52Z" id="object-0" style="fill: rgb(0, 166, 81);"/><path class="cls-1" d="M78.09,38.61A7.45,7.45,0,0,0,78,39.87a2.17,2.17,0,0,0,.12.8.84.84,0,0,0,.36.42,1.22,1.22,0,0,0,.56.12,6.1,6.1,0,0,0,1.43-.15,5.88,5.88,0,0,0,1.12-.37,5.62,5.62,0,0,0,.88-.49h0a.66.66,0,0,1,1,.3L84,41.9a.66.66,0,0,1-.24.8l-.34.23a9.52,9.52,0,0,1-1.42.76,12.26,12.26,0,0,1-2.07.68,11.67,11.67,0,0,1-2.69.29,5,5,0,0,1-2.5-.51,2.87,2.87,0,0,1-1.26-1.37,4.77,4.77,0,0,1-.32-2,18.79,18.79,0,0,1,.27-2.47l1.09-6.17a.66.66,0,0,0-.66-.78h-2a.67.67,0,0,1-.66-.79l.36-2A.67.67,0,0,1,72.2,28h2.49a.67.67,0,0,0,.66-.55l.39-2.2a.66.66,0,0,1,.44-.51l3.51-1.17a.67.67,0,0,1,.87.75l-.51,2.9a.66.66,0,0,0,.65.78h5.17a.67.67,0,0,1,.64.86l-.6,2a.68.68,0,0,1-.64.48H79.93a.66.66,0,0,0-.65.55Z" id="object-1" style="fill: rgb(0, 166, 81);"/><path class="cls-1" d="M94.52,38.61a7.62,7.62,0,0,0-.14,1.26,2,2,0,0,0,.13.8.76.76,0,0,0,.36.42,1.19,1.19,0,0,0,.56.12A6.11,6.11,0,0,0,98,40.69a5.09,5.09,0,0,0,.87-.49h0a.67.67,0,0,1,1,.3l.56,1.41a.66.66,0,0,1-.24.8l-.34.23a9.68,9.68,0,0,1-1.43.76,11.68,11.68,0,0,1-2.07.68,11.52,11.52,0,0,1-2.68.29,5.11,5.11,0,0,1-2.51-.51,2.81,2.81,0,0,1-1.25-1.37,4.77,4.77,0,0,1-.32-2,18.79,18.79,0,0,1,.27-2.47l1.08-6.17a.66.66,0,0,0-.65-.78h-2a.67.67,0,0,1-.65-.79l.36-2a.66.66,0,0,1,.65-.55h2.5a.67.67,0,0,0,.66-.55l.38-2.2a.69.69,0,0,1,.45-.51l3.51-1.17a.66.66,0,0,1,.86.75l-.5,2.9a.66.66,0,0,0,.65.78h5.17a.67.67,0,0,1,.64.86l-.61,2a.66.66,0,0,1-.63.48H96.36a.67.67,0,0,0-.66.55Z" id="object-2" style="fill: rgb(0, 166, 81);"/><path class="cls-1" d="M110.26,44.66a7.43,7.43,0,0,1-3.18-.65,6,6,0,0,1-2.25-1.79,6.52,6.52,0,0,1-1.2-2.7,8.85,8.85,0,0,1,0-3.37,10.44,10.44,0,0,1,3.3-6,9.58,9.58,0,0,1,2.89-1.76,9.45,9.45,0,0,1,3.46-.63,7.49,7.49,0,0,1,3.16.63,5.67,5.67,0,0,1,2.21,1.76,6.44,6.44,0,0,1,1.16,2.68,9,9,0,0,1,0,3.35,10.67,10.67,0,0,1-1.15,3.37,9.93,9.93,0,0,1-2.08,2.7A9.42,9.42,0,0,1,113.71,44,9.17,9.17,0,0,1,110.26,44.66Zm4.58-8.14a11.35,11.35,0,0,0,.18-2,5.69,5.69,0,0,0-.25-1.77,2.77,2.77,0,0,0-.77-1.26,2,2,0,0,0-1.4-.48,2.87,2.87,0,0,0-1.51.41,4.23,4.23,0,0,0-1.18,1.1,6.52,6.52,0,0,0-.86,1.56,9.26,9.26,0,0,0-.51,1.8,10.8,10.8,0,0,0-.17,2,5.53,5.53,0,0,0,.29,1.75,3,3,0,0,0,.81,1.25,2.1,2.1,0,0,0,1.43.48,2.65,2.65,0,0,0,1.46-.42,4,4,0,0,0,1.16-1.09,6.81,6.81,0,0,0,.83-1.56A9.65,9.65,0,0,0,114.84,36.52Z" id="object-3" style="fill: rgb(0, 166, 81);"/><path class="cls-1" d="M124.2,44.41h-3.93a.41.41,0,0,1-.39-.47l2.76-15.65A.39.39,0,0,1,123,28l4-.25a.4.4,0,0,1,.42.47h0a.4.4,0,0,0,.68.34l.43-.45a.39.39,0,0,1,.19-.12,8,8,0,0,1,1.14-.17c.44,0,.95-.05,1.53-.05a6.4,6.4,0,0,1,2.37.4,4,4,0,0,1,1.64,1.14,4,4,0,0,1,.85,1.79,6.47,6.47,0,0,1,0,2.36l-1.87,10.66a.4.4,0,0,1-.39.33H130a.4.4,0,0,1-.39-.47l1.84-10.52a2.91,2.91,0,0,0,0-1.06,1.62,1.62,0,0,0-.35-.72,1.55,1.55,0,0,0-.62-.42,2.3,2.3,0,0,0-.79-.13,4.26,4.26,0,0,0-1.65.3,5.13,5.13,0,0,0-1.3.86.36.36,0,0,0-.13.23l-2,11.6A.4.4,0,0,1,124.2,44.41Z" id="object-4" style="fill: rgb(0, 166, 81);"/><path class="cls-2" d="M61,44.66A7.43,7.43,0,0,1,57.8,44a6,6,0,0,1-2.25-1.79,6.65,6.65,0,0,1-1.2-2.7,8.85,8.85,0,0,1,0-3.37,10.44,10.44,0,0,1,3.3-6,9.58,9.58,0,0,1,2.89-1.76A9.45,9.45,0,0,1,64,27.73a7.49,7.49,0,0,1,3.16.63,5.67,5.67,0,0,1,2.21,1.76,6.44,6.44,0,0,1,1.16,2.68,9,9,0,0,1,0,3.35,10.67,10.67,0,0,1-1.15,3.37,9.93,9.93,0,0,1-2.08,2.7A9.42,9.42,0,0,1,64.43,44,9.17,9.17,0,0,1,61,44.66Zm4.58-8.14a11.35,11.35,0,0,0,.18-2,5.69,5.69,0,0,0-.25-1.77,2.77,2.77,0,0,0-.77-1.26,2,2,0,0,0-1.4-.48,2.87,2.87,0,0,0-1.51.41,4.23,4.23,0,0,0-1.18,1.1,6.52,6.52,0,0,0-.86,1.56,9.26,9.26,0,0,0-.51,1.8,11.72,11.72,0,0,0-.17,2,5.53,5.53,0,0,0,.29,1.75,3,3,0,0,0,.81,1.25,2.1,2.1,0,0,0,1.43.48A2.65,2.65,0,0,0,63.08,41a4,4,0,0,0,1.16-1.09,6.81,6.81,0,0,0,.83-1.56A9.65,9.65,0,0,0,65.56,36.52Z" style="fill: rgb(255, 255, 255);" id="object-5"/><path class="cls-2" d="M78.09,38.61A7.45,7.45,0,0,0,78,39.87a2.17,2.17,0,0,0,.12.8.84.84,0,0,0,.36.42,1.22,1.22,0,0,0,.56.12,6.1,6.1,0,0,0,1.43-.15,5.88,5.88,0,0,0,1.12-.37,5.62,5.62,0,0,0,.88-.49h0a.66.66,0,0,1,1,.3L84,41.9a.66.66,0,0,1-.24.8l-.34.23a9.52,9.52,0,0,1-1.42.76,12.26,12.26,0,0,1-2.07.68,11.67,11.67,0,0,1-2.69.29,5,5,0,0,1-2.5-.51,2.87,2.87,0,0,1-1.26-1.37,4.77,4.77,0,0,1-.32-2,18.79,18.79,0,0,1,.27-2.47l1.09-6.17a.66.66,0,0,0-.66-.78h-2a.67.67,0,0,1-.66-.79l.36-2A.67.67,0,0,1,72.2,28h2.49a.67.67,0,0,0,.66-.55l.39-2.2a.66.66,0,0,1,.44-.51l3.51-1.17a.67.67,0,0,1,.87.75l-.51,2.9a.66.66,0,0,0,.65.78h5.17a.67.67,0,0,1,.64.86l-.6,2a.68.68,0,0,1-.64.48H79.93a.66.66,0,0,0-.65.55Z" style="fill: rgb(255, 255, 255);" id="object-6"/><path class="cls-2" d="M94.52,38.61a7.62,7.62,0,0,0-.14,1.26,2,2,0,0,0,.13.8.76.76,0,0,0,.36.42,1.19,1.19,0,0,0,.56.12A6.11,6.11,0,0,0,98,40.69a5.09,5.09,0,0,0,.87-.49h0a.67.67,0,0,1,1,.3l.56,1.41a.66.66,0,0,1-.24.8l-.34.23a9.68,9.68,0,0,1-1.43.76,11.68,11.68,0,0,1-2.07.68,11.52,11.52,0,0,1-2.68.29,5.11,5.11,0,0,1-2.51-.51,2.81,2.81,0,0,1-1.25-1.37,4.77,4.77,0,0,1-.32-2,18.79,18.79,0,0,1,.27-2.47l1.08-6.17a.66.66,0,0,0-.65-.78h-2a.67.67,0,0,1-.65-.79l.36-2a.66.66,0,0,1,.65-.55h2.5a.67.67,0,0,0,.66-.55l.38-2.2a.69.69,0,0,1,.45-.51l3.51-1.17a.66.66,0,0,1,.86.75l-.5,2.9a.66.66,0,0,0,.65.78h5.17a.67.67,0,0,1,.64.86l-.61,2a.66.66,0,0,1-.63.48H96.36a.67.67,0,0,0-.66.55Z" style="fill: rgb(255, 255, 255);" id="object-7"/><path class="cls-2" d="M110.26,44.66a7.43,7.43,0,0,1-3.18-.65,6,6,0,0,1-2.25-1.79,6.52,6.52,0,0,1-1.2-2.7,8.85,8.85,0,0,1,0-3.37,10.44,10.44,0,0,1,3.3-6,9.58,9.58,0,0,1,2.89-1.76,9.45,9.45,0,0,1,3.46-.63,7.49,7.49,0,0,1,3.16.63,5.67,5.67,0,0,1,2.21,1.76,6.44,6.44,0,0,1,1.16,2.68,9,9,0,0,1,0,3.35,10.67,10.67,0,0,1-1.15,3.37,9.93,9.93,0,0,1-2.08,2.7A9.42,9.42,0,0,1,113.71,44,9.17,9.17,0,0,1,110.26,44.66Zm4.58-8.14a11.35,11.35,0,0,0,.18-2,5.69,5.69,0,0,0-.25-1.77,2.77,2.77,0,0,0-.77-1.26,2,2,0,0,0-1.4-.48,2.87,2.87,0,0,0-1.51.41,4.23,4.23,0,0,0-1.18,1.1,6.52,6.52,0,0,0-.86,1.56,9.26,9.26,0,0,0-.51,1.8,10.8,10.8,0,0,0-.17,2,5.53,5.53,0,0,0,.29,1.75,3,3,0,0,0,.81,1.25,2.1,2.1,0,0,0,1.43.48,2.65,2.65,0,0,0,1.46-.42,4,4,0,0,0,1.16-1.09,6.81,6.81,0,0,0,.83-1.56A9.65,9.65,0,0,0,114.84,36.52Z" style="fill: rgb(255, 255, 255);" id="object-8"/><path class="cls-2" d="M124.2,44.41h-3.93a.41.41,0,0,1-.39-.47l2.76-15.65A.39.39,0,0,1,123,28l4-.25a.4.4,0,0,1,.42.47h0a.4.4,0,0,0,.68.34l.43-.45a.39.39,0,0,1,.19-.12,8,8,0,0,1,1.14-.17c.44,0,.95-.05,1.53-.05a6.4,6.4,0,0,1,2.37.4,4,4,0,0,1,1.64,1.14,4,4,0,0,1,.85,1.79,6.47,6.47,0,0,1,0,2.36l-1.87,10.66a.4.4,0,0,1-.39.33H130a.4.4,0,0,1-.39-.47l1.84-10.52a2.91,2.91,0,0,0,0-1.06,1.62,1.62,0,0,0-.35-.72,1.55,1.55,0,0,0-.62-.42,2.3,2.3,0,0,0-.79-.13,4.26,4.26,0,0,0-1.65.3,5.13,5.13,0,0,0-1.3.86.36.36,0,0,0-.13.23l-2,11.6A.4.4,0,0,1,124.2,44.41Z" style="fill: rgb(255, 255, 255);" id="object-9"/><path class="cls-3" d="M51.5,47.76a4.92,4.92,0,0,1-.83,1.05C43.46,56.4,34.62,59.35,24.3,57.94A28.11,28.11,0,0,1,.84,36.42C.49,34.88.28,33.3,0,31.74V26.87c.14-.86.24-1.72.41-2.57A40.6,40.6,0,0,0,36,45.28c1.21,0,2.41-.06,3.59-.16h0c3.2,0,6.4,0,9.6,0a6.77,6.77,0,0,1,1,0A1.79,1.79,0,0,1,51.5,47.76Z" id="object-10" style="fill: url(&quot;#linear-gradient&quot;);"/><path class="cls-4" d="M57.26,21.16v1.17a2.67,2.67,0,0,1-2.55,1.19c-4.4-.05-8.79,0-13.18,0A1.83,1.83,0,0,1,39.6,21c.51-2,1.07-3.93,1.54-5.91a3.64,3.64,0,0,0-2.66-4.54,1.25,1.25,0,0,0-1.72.65c-3.54,6.21-7.16,12.38-10.64,18.63a10.34,10.34,0,0,0,6.14,14.81,18.45,18.45,0,0,0,4.65.45l2.65,0c-1.18.1-2.38.16-3.59.16A40.6,40.6,0,0,1,.41,24.3c0-.16.06-.32.09-.47Q4.31,6.24,21.55,1a49.48,49.48,0,0,1,5.32-1H31.4l2.05.32A28.39,28.39,0,0,1,54,14,61.85,61.85,0,0,1,57.26,21.16Z" id="object-11" style="fill: url(&quot;#linear-gradient-2&quot;);"/></g></g></svg>