<svg width="32" height="32" viewBox="0 0 32 32" fill="none" xmlns="http://www.w3.org/2000/svg">
<path d="M0 8C0 3.58172 3.58172 0 8 0H24C28.4183 0 32 3.58172 32 8V24C32 28.4183 28.4183 32 24 32H8C3.58172 32 0 28.4183 0 24V8Z" fill="#1DAF61"/>
<path d="M8.80005 25C8.80005 23.0904 9.55862 21.2591 10.9089 19.9088C12.2591 18.5586 14.0905 17.8 16 17.8C17.9096 17.8 19.741 18.5586 21.0912 19.9088C22.4415 21.2591 23.2 23.0904 23.2 25H8.80005ZM16 16.9C13.0165 16.9 10.6 14.4835 10.6 11.5C10.6 8.5165 13.0165 6.1 16 6.1C18.9835 6.1 21.4 8.5165 21.4 11.5C21.4 14.4835 18.9835 16.9 16 16.9Z" fill="white"/>
</svg>
