<svg width="32" height="32" viewBox="0 0 32 32" fill="none" xmlns="http://www.w3.org/2000/svg">
<path d="M14.007 6.10389C12.6054 5.65018 11.0818 6.28128 10.4116 7.59318L9.60578 9.17035C9.51004 9.35775 9.35763 9.51016 9.17023 9.6059L7.59306 10.4117C6.28116 11.0819 5.65006 12.6056 6.10377 14.0071L6.64923 15.6921C6.71404 15.8923 6.71404 16.1079 6.64923 16.3081L6.10377 17.9931C5.65006 19.3947 6.28116 20.9183 7.59306 21.5886L9.17023 22.3943C9.35763 22.4901 9.51004 22.6425 9.60578 22.8299L10.4116 24.4071C11.0818 25.719 12.6054 26.3501 14.007 25.8964L15.692 25.3509C15.8922 25.2861 16.1078 25.2861 16.308 25.3509L17.993 25.8964C19.3946 26.3501 20.9182 25.719 21.5885 24.4071L22.3942 22.8299C22.49 22.6425 22.6424 22.4901 22.8298 22.3943L24.407 21.5886C25.7189 20.9183 26.35 19.3947 25.8963 17.9931L25.3508 16.3081C25.286 16.1079 25.286 15.8923 25.3508 15.6921L25.8963 14.0071C26.35 12.6056 25.7189 11.0819 24.407 10.4117L22.8298 9.6059C22.6424 9.51016 22.49 9.35775 22.3942 9.17035L21.5885 7.59318C20.9182 6.28128 19.3946 5.65018 17.993 6.10389L16.308 6.64935C16.1078 6.71415 15.8922 6.71416 15.692 6.64935L14.007 6.10389ZM10.7598 15.7574L12.174 14.3431L15.0024 17.1716L20.6593 11.5148L22.0735 12.929L15.0024 20L10.7598 15.7574Z" fill="#0B4627"/>
</svg>
