<svg width="346" height="9" viewBox="0 0 346 9" fill="none" xmlns="http://www.w3.org/2000/svg">
<path d="M7.50694 4.52356C10.2159 4.52356 13.0539 4.47644 15.7629 4.42932C16.9239 4.42932 17.9558 4.3822 19.1168 4.3822C24.0188 4.28796 28.9207 4.19372 33.8227 4.09948C39.7567 4.00524 45.5616 3.86387 51.4956 3.76963C59.8805 3.58115 68.2654 3.43979 76.6503 3.25131C78.5853 3.20419 80.5203 3.20419 82.4553 3.15707C87.3572 3.06283 92.2592 2.96859 97.1612 2.92147C102.063 2.82722 106.965 2.73298 111.867 2.68586C113.802 2.63874 115.737 2.59162 117.672 2.59162C125.412 2.49738 133.281 2.40314 141.021 2.3089C145.794 2.26178 150.567 2.21466 155.469 2.12042C157.404 2.12042 159.21 2.0733 161.145 2.0733C168.627 2.02618 176.237 1.97906 183.719 1.93194C191.201 1.88482 198.554 1.8377 206.036 1.79058C207.971 1.79058 209.906 1.79058 211.97 1.79058C216.872 1.79058 221.645 1.79058 226.547 1.79058C234.158 1.79058 241.64 1.79058 249.251 1.74346C251.702 1.74346 254.153 1.74346 256.604 1.74346C261.764 1.74346 266.924 1.74346 272.084 1.74346C272.471 1.74346 272.987 1.74346 273.374 1.74346C261.764 1.79058 250.025 1.8377 238.415 1.93194C233.513 1.97906 228.74 1.97906 223.838 2.02618C221.774 2.02618 219.581 2.02618 217.517 2.0733C210.422 2.12042 203.456 2.21466 196.361 2.26178C188.234 2.35602 180.107 2.40314 171.98 2.49738C170.562 2.49738 169.272 2.5445 167.853 2.5445C163.467 2.63874 159.21 2.68586 154.824 2.7801C146.052 2.92147 137.28 3.06283 128.508 3.20419C127.218 3.20419 125.928 3.25131 124.638 3.29843C120.381 3.39267 115.995 3.53403 111.738 3.62827C103.998 3.81675 96.3872 4.00524 88.6472 4.19372C86.5832 4.24084 84.3903 4.33508 82.3263 4.3822C77.4243 4.52356 72.5224 4.66492 67.6204 4.8534C61.4285 5.04188 55.1075 5.23037 48.9156 5.41885C40.2727 5.70157 31.5007 5.98429 22.8578 6.26702C20.7938 6.31414 18.7298 6.40838 16.5369 6.4555C12.7959 6.59686 9.05492 6.73822 5.31396 6.87958C4.92696 6.87958 4.53996 6.97382 4.53996 7.1623C4.53996 7.30366 4.92696 7.44503 5.31396 7.44503C6.73294 7.44503 8.02293 7.49215 9.44192 7.49215C9.18392 7.72775 9.05492 7.86911 9.05492 8.01047C9.05492 8.5288 10.2159 9 11.7639 9C22.4708 8.7644 33.0487 8.48168 43.7556 8.29319C53.0435 8.15183 62.3315 7.96335 71.6194 7.82199C81.8103 7.63351 92.1302 7.44503 102.321 7.30367C105.546 7.25654 108.771 7.20942 111.996 7.11518C112.899 7.11518 113.802 7.06806 114.834 7.06806C131.346 6.9267 147.858 6.73822 164.37 6.59686C173.141 6.50262 182.042 6.40838 190.814 6.36126C194.039 6.31414 197.135 6.31414 200.36 6.26702C217.259 6.17277 234.158 6.07853 251.057 5.98429C258.281 5.93717 265.505 5.89005 272.729 5.84293C278.921 5.79581 285.113 5.79581 291.304 5.70157C296.464 5.65445 301.495 5.56021 306.655 5.51309C309.235 5.46597 311.815 5.46597 314.266 5.41885C320.071 5.27749 325.876 5.13613 331.681 4.99476C331.294 5.18325 331.294 5.46597 331.423 5.65445C331.552 5.89005 331.939 6.07853 332.584 6.17277C333.1 6.26702 333.874 6.36126 334.39 6.26702C335.68 6.07853 336.97 5.89005 338.131 5.70157C338.131 5.70157 338.131 5.70157 338.002 5.70157C338.131 5.70157 338.131 5.65445 338.26 5.65445C338.389 5.65445 338.518 5.60733 338.518 5.60733H338.389C339.034 5.51309 339.679 5.41885 340.453 5.27749C341.098 5.18325 341.872 5.04188 342.517 4.94764C343.291 4.80628 343.936 4.66492 344.71 4.52356C345.484 4.3822 346 4.00524 346 3.67539C346 3.48691 345.871 3.34555 345.613 3.15707C345.355 2.96859 344.71 2.73298 344.065 2.68586C343.42 2.63874 342.775 2.59162 342.13 2.59162C342.001 2.59162 341.872 2.59162 341.743 2.59162C341.356 2.59162 340.84 2.59162 340.453 2.63874C339.421 2.68586 338.518 2.73298 337.486 2.73298C336.712 2.73298 335.938 2.7801 335.035 2.7801C332.842 2.82722 330.778 2.87435 328.585 2.96859C328.069 2.96859 327.424 3.01571 326.908 3.01571C327.166 2.92147 327.295 2.82722 327.295 2.73298C327.424 2.63874 327.424 2.5445 327.424 2.45026C327.424 2.40314 327.424 2.3089 327.553 2.26178C327.553 2.16754 327.553 2.0733 327.424 2.02618C327.424 2.02618 327.553 2.02618 327.553 1.97906C327.94 1.88482 328.327 1.79058 328.585 1.60209C328.843 1.46073 328.972 1.27225 328.972 1.08377C328.972 0.895288 328.843 0.753927 328.585 0.565445C328.456 0.518325 328.327 0.424084 328.198 0.376963C327.811 0.235602 327.424 0.188482 327.037 0.141361C326.263 0.0471204 325.36 0 324.457 0C323.683 0 323.038 0 322.264 0C321.232 0 320.2 0 319.168 0C317.749 0 316.201 0 314.782 0C310.912 0 307.042 0 303.172 0C299.56 0 295.819 0 292.207 0C288.853 0 285.629 0 282.275 0C268.988 0 255.83 0.0471204 242.543 0.0942408C232.61 0.141361 222.677 0.188482 212.744 0.188482C208.358 0.188482 203.843 0.235602 199.457 0.282723C189.524 0.376963 179.591 0.424084 169.659 0.518325C166.821 0.518325 163.983 0.565445 161.145 0.565445C159.468 0.565445 157.92 0.612565 156.243 0.612565C146.439 0.753927 136.635 0.895288 126.831 1.03665C123.864 1.08377 120.897 1.13089 117.801 1.17801C116.124 1.17801 114.447 1.22513 112.77 1.27225C102.966 1.46073 93.2912 1.64921 83.4873 1.8377C78.4563 1.93194 73.4254 2.02618 68.3944 2.16754C59.7515 2.35602 51.1086 2.5445 42.5946 2.7801C35.1127 2.96859 27.6308 3.10995 20.1488 3.25131C18.9878 3.29843 17.8268 3.29843 16.5369 3.34555C14.6019 3.39267 12.6669 3.39267 10.7319 3.43979C9.05492 3.62827 7.24894 3.62827 5.57195 3.62827C5.44296 3.43979 4.92696 3.29843 4.53996 3.34555C3.37897 3.34555 2.34698 3.39267 1.18599 3.43979C0.669996 3.48691 0.154001 3.58115 0.0250019 3.76963C-0.103997 4.00524 0.283 4.24084 0.798995 4.28796C1.31499 4.33508 1.83099 4.3822 2.34698 4.42932C2.86298 4.47644 3.24997 4.47644 3.76597 4.47644C5.05596 4.52356 6.21695 4.52356 7.50694 4.52356ZM309.364 3.01571C310.912 3.01571 312.589 3.01571 314.137 3.01571C314.266 3.15707 314.524 3.25131 314.782 3.34555C314.137 3.34555 313.492 3.39267 312.976 3.39267C311.815 3.39267 310.654 3.43979 309.493 3.43979C304.333 3.48691 299.302 3.58115 294.142 3.62827C291.82 3.67539 289.498 3.72251 287.177 3.72251C283.565 3.72251 279.824 3.76963 276.212 3.76963C267.827 3.81675 259.571 3.86387 251.186 3.91099C234.932 4.00524 218.807 4.09948 202.553 4.19372C190.943 4.24084 179.333 4.3822 167.724 4.52356C150.309 4.71204 132.765 4.8534 115.35 5.04188C111.867 5.089 108.384 5.13613 104.901 5.23037C94.9682 5.41885 85.0353 5.56021 75.1023 5.74869C65.4274 5.93717 55.6235 6.07853 45.9486 6.26702C45.0456 6.26702 44.1426 6.31414 43.2396 6.31414C45.8196 6.2199 48.5286 6.17277 51.1086 6.07853C60.2675 5.84293 69.4264 5.56021 78.5853 5.32461C81.8103 5.23037 85.0353 5.13613 88.1312 5.04188C89.8082 4.99476 91.4852 4.94764 93.0332 4.94764C102.708 4.75916 112.254 4.52356 121.8 4.33508C123.606 4.28796 125.541 4.24084 127.347 4.19372C130.056 4.1466 132.765 4.09948 135.345 4.09948C145.149 3.95812 154.953 3.81675 164.757 3.67539C166.95 3.62827 169.143 3.62827 171.206 3.58115C171.723 3.58115 172.367 3.58115 172.883 3.58115C174.431 3.58115 175.979 3.58115 177.398 3.53403C187.202 3.43979 197.135 3.39267 206.939 3.29843C211.454 3.25131 215.969 3.20419 220.484 3.20419C235.061 3.15707 249.767 3.10995 264.344 3.06283C279.566 3.06283 294.529 3.01571 309.364 3.01571Z" fill="#1DAF61"/>
</svg>
