<svg width="13" height="12" viewBox="0 0 13 12" fill="none" xmlns="http://www.w3.org/2000/svg">
<path d="M12.5 6.59938V10.8C12.5 10.9591 12.4368 11.1117 12.3243 11.2242C12.2117 11.3368 12.0591 11.4 11.9 11.4H7.1V6.59938H12.5ZM5.9 6.59938V11.4H1.1C0.94087 11.4 0.788258 11.3368 0.675736 11.2242C0.563214 11.1117 0.5 10.9591 0.5 10.8V6.59938H5.9V6.59938ZM5.9 0.599976V5.39938H0.5V1.19998C0.5 1.04085 0.563214 0.888233 0.675736 0.775712C0.788258 0.66319 0.94087 0.599976 1.1 0.599976H5.9ZM11.9 0.599976C12.0591 0.599976 12.2117 0.66319 12.3243 0.775712C12.4368 0.888233 12.5 1.04085 12.5 1.19998V5.39938H7.1V0.599976H11.9Z" fill="#1FC16B"/>
</svg>
