<svg width="11" height="12" viewBox="0 0 11 12" fill="none" xmlns="http://www.w3.org/2000/svg">
<path d="M9.69985 4.8H10.2999C10.459 4.8 10.6116 4.86321 10.7241 4.97574C10.8366 5.08826 10.8999 5.24087 10.8999 5.4V11.4C10.8999 11.5591 10.8366 11.7117 10.7241 11.8243C10.6116 11.9368 10.459 12 10.2999 12H0.699854C0.540724 12 0.388111 11.9368 0.275589 11.8243C0.163068 11.7117 0.0998535 11.5591 0.0998535 11.4V5.4C0.0998535 5.24087 0.163068 5.08826 0.275589 4.97574C0.388111 4.86321 0.540724 4.8 0.699854 4.8H1.29985V4.2C1.29985 3.64845 1.40849 3.1023 1.61956 2.59273C1.83063 2.08316 2.14 1.62016 2.53001 1.23015C2.92001 0.840145 3.38302 0.530776 3.89258 0.319706C4.40215 0.108636 4.9483 0 5.49985 0C6.05141 0 6.59756 0.108636 7.10713 0.319706C7.61669 0.530776 8.0797 0.840145 8.4697 1.23015C8.85971 1.62016 9.16908 2.08316 9.38015 2.59273C9.59122 3.1023 9.69985 3.64845 9.69985 4.2V4.8ZM8.49985 4.8V4.2C8.49985 3.40435 8.18378 2.64129 7.62117 2.07868C7.05857 1.51607 6.2955 1.2 5.49985 1.2C4.7042 1.2 3.94114 1.51607 3.37853 2.07868C2.81592 2.64129 2.49985 3.40435 2.49985 4.2V4.8H8.49985ZM4.89985 7.2V9.6H6.09985V7.2H4.89985Z" fill="#1FC16B"/>
</svg>
