<svg width="11" height="12" viewBox="0 0 11 12" fill="none" xmlns="http://www.w3.org/2000/svg">
<path d="M4.0001 6.375C4.3001 4.8 4.7126 4.3875 6.2876 4.0875C6.4751 4.05 6.5876 3.9 6.5876 3.7125C6.5876 3.525 6.4751 3.375 6.2876 3.3375C4.7126 3.0375 4.3001 2.625 4.0001 1.05C3.9626 0.8625 3.8126 0.75 3.6251 0.75C3.4376 0.75 3.2876 0.8625 3.2501 1.05C2.9501 2.625 2.5376 3.0375 0.962598 3.3375C0.812598 3.375 0.662598 3.525 0.662598 3.7125C0.662598 3.9 0.775098 4.05 0.962598 4.0875C2.5376 4.3875 2.9501 4.8 3.2501 6.375C3.2876 6.5625 3.4376 6.675 3.6251 6.675C3.8126 6.675 3.9626 6.525 4.0001 6.375Z" fill="white"/>
<path d="M7.7502 9C6.7002 8.775 6.4752 8.55 6.2502 7.5C6.2127 7.3125 6.0627 7.2 5.8752 7.2C5.6877 7.2 5.5377 7.3125 5.5002 7.5C5.2752 8.55 5.0502 8.775 4.0002 9C3.8127 9.0375 3.7002 9.1875 3.7002 9.375C3.7002 9.5625 3.8127 9.7125 4.0002 9.75C5.0502 9.975 5.2752 10.2 5.5002 11.25C5.5377 11.4375 5.6877 11.55 5.8752 11.55C6.0627 11.55 6.2127 11.4375 6.2502 11.25C6.4752 10.2 6.7002 9.975 7.7502 9.75C7.9377 9.7125 8.0502 9.5625 8.0502 9.375C8.0502 9.1875 7.9002 9.0375 7.7502 9Z" fill="white"/>
<path d="M10.4502 5.25001C9.6252 5.10001 9.4377 4.91251 9.2877 4.08751C9.2502 3.90001 9.1002 3.78751 8.9127 3.78751C8.7252 3.78751 8.5752 3.90001 8.5377 4.08751C8.3877 4.91251 8.2002 5.10001 7.3752 5.25001C7.1877 5.28751 7.0752 5.43751 7.0752 5.62501C7.0752 5.81251 7.1877 5.96251 7.3752 6.00001C8.2002 6.15001 8.3877 6.33751 8.5377 7.16251C8.5752 7.35001 8.7252 7.46251 8.9127 7.46251C9.1002 7.46251 9.2502 7.35001 9.2877 7.16251C9.4377 6.33751 9.6252 6.15001 10.4502 6.00001C10.6377 5.96251 10.7502 5.81251 10.7502 5.62501C10.7502 5.43751 10.6377 5.28751 10.4502 5.25001Z" fill="white"/>
<path d="M1.6375 8.36249C1.525 8.24999 1.375 8.21249 1.225 8.28749C1.1875 8.28749 1.15 8.32499 1.1125 8.36249C1.075 8.39999 1.0375 8.43749 1.0375 8.47499C1 8.51249 1 8.58749 1 8.62499C1 8.66249 1 8.73749 1.0375 8.77499C1.075 8.81249 1.075 8.84999 1.1125 8.88749C1.15 8.92499 1.1875 8.96249 1.225 8.96249C1.2625 8.99999 1.3375 8.99999 1.375 8.99999C1.4125 8.99999 1.4875 8.99999 1.525 8.96249C1.5625 8.92499 1.6 8.92499 1.6375 8.88749C1.675 8.84999 1.7125 8.81249 1.7125 8.77499C1.75 8.73749 1.75 8.66249 1.75 8.62499C1.75 8.58749 1.75 8.51249 1.7125 8.47499C1.7125 8.43749 1.675 8.39999 1.6375 8.36249Z" fill="white"/>
<path d="M10 2.62499C10.1125 2.62499 10.1875 2.58749 10.2625 2.51249C10.3375 2.43749 10.375 2.36249 10.375 2.24999C10.375 2.13749 10.3375 2.06249 10.2625 1.98749C10.225 1.94999 10.1875 1.91249 10.15 1.91249C10.075 1.87499 9.9625 1.87499 9.85 1.91249C9.8125 1.91249 9.775 1.94999 9.7375 1.98749C9.6625 2.06249 9.625 2.13749 9.625 2.24999C9.625 2.36249 9.6625 2.43749 9.7375 2.51249C9.8125 2.58749 9.8875 2.62499 10 2.62499Z" fill="white"/>
</svg>
