<svg width="11" height="11" viewBox="0 0 11 11" fill="none" xmlns="http://www.w3.org/2000/svg">
<path d="M3 0.5V1.5H1C0.72386 1.5 0.5 1.72386 0.5 2V10C0.5 10.2761 0.72386 10.5 1 10.5H4.8773C4.32836 9.8152 4 8.94595 4 8C4 5.79085 5.79085 4 8 4C8.94595 4 9.8152 4.32836 10.5 4.87732V2C10.5 1.72386 10.2761 1.5 10 1.5H8V0.5H7V1.5H4V0.5H3ZM11 8C11 9.65685 9.65685 11 8 11C6.34315 11 5 9.65685 5 8C5 6.34315 6.34315 5 8 5C9.65685 5 11 6.34315 11 8ZM7.5 6V8.2071L8.64645 9.35355L9.35355 8.64645L8.5 7.7929V6H7.5Z" fill="#1FC16B"/>
</svg>
