<svg width="140" height="163" viewBox="0 0 140 163" fill="none" xmlns="http://www.w3.org/2000/svg">
<path d="M77.4299 -23.7852C106.738 5.49015 106.988 54.8376 106.988 54.8376C106.988 54.8376 59.7214 56.7204 30.4136 27.445C1.10583 -1.83028 0.855297 -51.1777 0.855297 -51.1777C0.855297 -51.1777 48.1221 -53.0605 77.4299 -23.7852Z" fill="#C99A2C"/>
<path d="M136.546 -23.7852C107.239 5.49015 106.988 54.8376 106.988 54.8376C106.988 54.8376 154.255 56.7204 183.563 27.445C212.87 -1.83028 213.121 -51.1777 213.121 -51.1777C213.121 -51.1777 165.854 -53.0605 136.546 -23.7852Z" fill="#C99A2C"/>
<path d="M77.4299 133.419C106.738 104.144 106.988 54.7967 106.988 54.7967C106.988 54.7967 59.7214 52.9139 30.4136 82.1892C1.10583 111.465 0.855297 160.812 0.855297 160.812C0.855297 160.812 48.1221 162.695 77.4299 133.419Z" fill="#C99A2C"/>
<path d="M136.546 133.419C107.239 104.144 106.988 54.7967 106.988 54.7967C106.988 54.7967 154.255 52.9139 183.563 82.1892C212.87 111.465 213.121 160.812 213.121 160.812C213.121 160.812 165.854 162.695 136.546 133.419Z" fill="#C99A2C"/>
</svg>
