<svg width="32" height="32" viewBox="0 0 32 32" fill="none" xmlns="http://www.w3.org/2000/svg">
<path d="M0 8C0 3.58172 3.58172 0 8 0H24C28.4183 0 32 3.58172 32 8V24C32 28.4183 28.4183 32 24 32H8C3.58172 32 0 28.4183 0 24V8Z" fill="#E6A819"/>
<path d="M16 22.3H17.8V10.6L23.5546 13.066C23.7166 13.1354 23.8546 13.2509 23.9516 13.3981C24.0485 13.5453 24.1001 13.7177 24.1 13.894V22.3H25.9V24.1H6.09998V22.3H7.89998V10.285C7.89995 10.1109 7.95045 9.94046 8.04534 9.79445C8.14023 9.64844 8.27544 9.5331 8.43458 9.4624L15.3673 6.3808C15.4359 6.35033 15.511 6.3375 15.5858 6.34347C15.6606 6.34944 15.7327 6.37403 15.7956 6.415C15.8585 6.45597 15.9101 6.51201 15.9458 6.57803C15.9815 6.64405 16.0001 6.71795 16 6.793V22.3Z" fill="white"/>
</svg>
